<svg width="30" height="30" viewBox="0 0 30 30" fill="none" xmlns="http://www.w3.org/2000/svg">
<path d="M23.7181 5.41948H21.323V4.22188C21.323 3.90426 21.1968 3.59965 20.9722 3.37506C20.7476 3.15047 20.443 3.02429 20.1254 3.02429C19.8077 3.02429 19.5031 3.15047 19.2785 3.37506C19.0539 3.59965 18.9278 3.90426 18.9278 4.22188V5.41948H11.7422V4.22188C11.7422 3.90426 11.616 3.59965 11.3915 3.37506C11.1669 3.15047 10.8622 3.02429 10.5446 3.02429C10.227 3.02429 9.92239 3.15047 9.6978 3.37506C9.47321 3.59965 9.34703 3.90426 9.34703 4.22188V5.41948H6.95185C5.99898 5.41948 5.08515 5.798 4.41137 6.47178C3.73759 7.14555 3.35907 8.05939 3.35907 9.01226V23.3834C3.35907 24.3362 3.73759 25.2501 4.41137 25.9238C5.08515 26.5976 5.99898 26.9761 6.95185 26.9761H23.7181C24.671 26.9761 25.5848 26.5976 26.2586 25.9238C26.9324 25.2501 27.3109 24.3362 27.3109 23.3834V9.01226C27.3109 8.05939 26.9324 7.14555 26.2586 6.47178C25.5848 5.798 24.671 5.41948 23.7181 5.41948ZM24.9157 23.3834C24.9157 23.701 24.7896 24.0056 24.565 24.2302C24.3404 24.4548 24.0358 24.581 23.7181 24.581H6.95185C6.63423 24.581 6.32961 24.4548 6.10502 24.2302C5.88043 24.0056 5.75426 23.701 5.75426 23.3834V15.0002H24.9157V23.3834ZM24.9157 12.605H5.75426V9.01226C5.75426 8.69463 5.88043 8.39002 6.10502 8.16543C6.32961 7.94084 6.63423 7.81466 6.95185 7.81466H9.34703V9.01226C9.34703 9.32988 9.47321 9.63449 9.6978 9.85908C9.92239 10.0837 10.227 10.2098 10.5446 10.2098C10.8622 10.2098 11.1669 10.0837 11.3915 9.85908C11.616 9.63449 11.7422 9.32988 11.7422 9.01226V7.81466H18.9278V9.01226C18.9278 9.32988 19.0539 9.63449 19.2785 9.85908C19.5031 10.0837 19.8077 10.2098 20.1254 10.2098C20.443 10.2098 20.7476 10.0837 20.9722 9.85908C21.1968 9.63449 21.323 9.32988 21.323 9.01226V7.81466H23.7181C24.0358 7.81466 24.3404 7.94084 24.565 8.16543C24.7896 8.39002 24.9157 8.69463 24.9157 9.01226V12.605Z" fill="#C39A2D"/>
</svg>
