<svg width="148" height="251" viewBox="0 0 148 251" fill="none" xmlns="http://www.w3.org/2000/svg">
<path d="M115.635 169.371C117.622 171.358 117.622 174.577 115.635 176.565L96.9071 195.292L91.4739 200.725C89.4863 202.713 86.2677 202.713 84.2801 200.725L54.8238 171.269L41.7428 158.181L27.2106 143.649L-0.54005 115.891C-2.52765 113.904 -2.52765 110.685 -0.54005 108.697L23.6137 84.5437C25.6013 82.5561 28.82 82.5561 30.8076 84.5437L41.7428 95.4789L58.5583 112.294L83.0215 136.758L115.635 169.371Z" fill="#C39A2D" fill-opacity="0.2"/>
<path d="M71.7768 217.348C72.6228 218.194 72.6228 219.576 71.7768 220.422L47.9876 244.218L42.1142 250.092H41.8254L41.7428 250.009L19.9274 228.201L-18.7103 189.563L-48.5243 159.749C-49.3702 158.903 -49.3702 157.521 -48.5243 156.675L-20.2509 128.401C-19.405 127.555 -18.0226 127.555 -17.1766 128.401L48.9848 194.563L71.77 217.348H71.7768Z" fill="#C39A2D" fill-opacity="0.2"/>
<path d="M108.076 69.9769L146.508 108.408C147.464 109.364 148 110.657 148 112.005V142.094C148 143.442 147.464 144.735 146.508 145.691L137.402 154.797C135.414 156.785 132.196 156.785 130.208 154.797L92.0103 116.599L45.3809 69.97C43.3933 67.9824 43.3933 64.7637 45.3809 62.7761L73.1385 35.0255C76.3434 31.8206 74.0738 26.3392 69.5416 26.3392H67.5677L67.7603 26.1604H52.9874L52.8086 26.3392L41.7565 37.3913L27.2794 51.8685L12.7128 66.435L-18.6417 97.7895L-33.2082 112.356L-60.9726 140.107C-62.9602 142.094 -66.1789 142.094 -68.1665 140.107L-69.5076 138.766C-70.4636 137.81 -71 136.517 -71 135.169V-12.9107C-71 -15.7236 -68.7236 -18 -65.9107 -18H41.7427H142.904C145.717 -18 147.993 -15.7236 147.993 -12.9107V20.7478C147.993 22.0958 147.457 23.3888 146.501 24.3447L108.069 62.7761C106.082 64.7637 106.082 67.9824 108.069 69.97L108.076 69.9769Z" fill="#C39A2D" fill-opacity="0.2"/>
</svg>
