<svg width="15" height="24" viewBox="0 0 15 24" fill="none" xmlns="http://www.w3.org/2000/svg">
<path d="M12.1242 7.80852H14.5194C14.5194 4.41095 11.2201 2.86127 8.53146 2.50438V0.0241699H6.13628V2.50438C3.44768 2.86127 0.148315 4.41095 0.148315 7.80852C0.148315 11.0492 3.3411 12.7342 6.13628 13.1139V19.0659C4.40216 18.7653 2.5435 17.8396 2.5435 16.1917H0.148315C0.148315 19.2922 3.05248 21.1246 6.13628 21.5042V23.976H8.53146V21.497C11.2201 21.1401 14.5194 19.5892 14.5194 16.1917C14.5194 12.7941 11.2201 11.2444 8.53146 10.8875V4.9343C10.1243 5.22052 12.1242 6.06123 12.1242 7.80852ZM2.5435 7.80852C2.5435 6.06123 4.54348 5.22052 6.13628 4.9343V10.6815C4.49438 10.3786 2.5435 9.48156 2.5435 7.80852ZM12.1242 16.1917C12.1242 17.939 10.1243 18.7797 8.53146 19.0659V13.3174C10.1243 13.6037 12.1242 14.4444 12.1242 16.1917Z" fill="#C39A2D"/>
</svg>
