<svg width="27" height="28" viewBox="0 0 27 28" fill="none" xmlns="http://www.w3.org/2000/svg">
<path d="M11.2309 19.1667L6.14954 14.0841L7.84293 12.3907L11.2309 15.7775L18.0045 9.00269L19.6991 10.6973L11.2309 19.1667Z" fill="#C39A2D"/>
<path fill-rule="evenodd" clip-rule="evenodd" d="M0.161499 14.0002C0.161499 6.7248 6.05964 0.82666 13.335 0.82666C20.6104 0.82666 26.5085 6.7248 26.5085 14.0002C26.5085 21.2756 20.6104 27.1737 13.335 27.1737C6.05964 27.1737 0.161499 21.2756 0.161499 14.0002ZM13.335 24.7785C11.9196 24.7785 10.518 24.4997 9.21033 23.9581C7.90264 23.4164 6.71445 22.6225 5.71358 21.6216C4.71272 20.6208 3.9188 19.4326 3.37714 18.1249C2.83547 16.8172 2.55668 15.4156 2.55668 14.0002C2.55668 12.5847 2.83547 11.1832 3.37714 9.87549C3.9188 8.5678 4.71272 7.37961 5.71358 6.37875C6.71445 5.37789 7.90264 4.58396 9.21033 4.0423C10.518 3.50064 11.9196 3.22185 13.335 3.22185C16.1936 3.22185 18.9351 4.35742 20.9564 6.37875C22.9778 8.40008 24.1134 11.1416 24.1134 14.0002C24.1134 16.8588 22.9778 19.6003 20.9564 21.6216C18.9351 23.6429 16.1936 24.7785 13.335 24.7785Z" fill="#C39A2D"/>
</svg>
