<svg width="23" height="23" viewBox="0 0 23 23" fill="none" xmlns="http://www.w3.org/2000/svg">
<path fill-rule="evenodd" clip-rule="evenodd" d="M11.7021 3.65967C9.48309 3.65967 9.2053 3.66893 8.33381 3.70869C7.46396 3.74845 6.86971 3.8868 6.35008 4.08888C5.8054 4.29368 5.31138 4.61504 4.90287 5.03117C4.4874 5.43921 4.16584 5.93289 3.96057 6.47785C3.75958 6.99747 3.62069 7.59226 3.58093 8.46212C3.54171 9.33306 3.53191 9.61031 3.53191 11.8299C3.53191 14.0495 3.54117 14.3267 3.58093 15.1982C3.62069 16.068 3.75904 16.6623 3.96111 17.1819C4.16591 17.7266 4.48728 18.2206 4.90341 18.6291C5.31146 19.0446 5.80514 19.3661 6.35008 19.5714C6.86971 19.773 7.46396 19.9113 8.33381 19.9511C9.2053 19.9908 9.48309 20.0001 11.7021 20.0001C13.9211 20.0001 14.1989 19.9908 15.0704 19.9511C15.9403 19.9113 16.5345 19.773 17.0542 19.5709C17.5988 19.3661 18.0929 19.0447 18.5014 18.6286C18.9168 18.2205 19.2384 17.7269 19.4437 17.1819C19.6452 16.6623 19.7835 16.068 19.8233 15.1982C19.8631 14.3267 19.8723 14.0489 19.8723 11.8299C19.8723 9.61085 19.8631 9.33306 19.8233 8.46157C19.7835 7.59172 19.6452 6.99747 19.4431 6.47785C19.238 5.93266 18.9164 5.43877 18.5008 5.03063C18.0928 4.61516 17.5991 4.2936 17.0542 4.08833C16.5345 3.88734 15.9397 3.74845 15.0699 3.70869C14.1989 3.66947 13.9217 3.65967 11.7021 3.65967ZM11.7021 5.13194C13.8836 5.13194 14.1423 5.14011 15.004 5.17933C15.8003 5.21582 16.2328 5.34818 16.5209 5.46093C16.9022 5.60854 17.1745 5.7861 17.4605 6.07151C17.7464 6.35747 17.9235 6.62981 18.0711 7.01109C18.1833 7.29923 18.3162 7.7317 18.3527 8.52803C18.3919 9.38971 18.4001 9.64843 18.4001 11.8299C18.4001 14.0113 18.3919 14.2701 18.3527 15.1317C18.3162 15.9281 18.1838 16.3605 18.0711 16.6487C17.9403 17.0036 17.7317 17.3246 17.4605 17.5882C17.1969 17.8595 16.8758 18.0681 16.5209 18.1988C16.2328 18.311 15.8003 18.4439 15.004 18.4804C14.1423 18.5196 13.8841 18.5278 11.7021 18.5278C9.52013 18.5278 9.26195 18.5196 8.40026 18.4804C7.60394 18.4439 7.17146 18.3116 6.88333 18.1988C6.52844 18.0681 6.20738 17.8594 5.94375 17.5882C5.6726 17.3246 5.46396 17.0035 5.33317 16.6487C5.22096 16.3605 5.08806 15.9281 5.05157 15.1317C5.01235 14.2701 5.00418 14.0113 5.00418 11.8299C5.00418 9.64843 5.01235 9.38971 5.05157 8.52803C5.08806 7.7317 5.22042 7.29923 5.33317 7.01109C5.48077 6.62981 5.65834 6.35747 5.94375 6.07151C6.20735 5.80029 6.52842 5.59164 6.88333 5.46093C7.17146 5.34872 7.60394 5.21582 8.40026 5.17933C9.26195 5.14011 9.52067 5.13194 11.7021 5.13194V5.13194Z" fill="#C39A2D"/>
<path fill-rule="evenodd" clip-rule="evenodd" d="M11.7021 14.5561C11.3441 14.5561 10.9896 14.4856 10.6589 14.3486C10.3281 14.2116 10.0276 14.0108 9.77445 13.7576C9.52131 13.5045 9.3205 13.2039 9.1835 12.8732C9.0465 12.5424 8.97599 12.1879 8.97599 11.8299C8.97599 11.4719 9.0465 11.1175 9.1835 10.7867C9.3205 10.456 9.52131 10.1554 9.77445 9.90229C10.0276 9.64914 10.3281 9.44834 10.6589 9.31134C10.9896 9.17433 11.3441 9.10382 11.7021 9.10382C12.4251 9.10382 13.1185 9.39104 13.6298 9.90229C14.141 10.4135 14.4282 11.1069 14.4282 11.8299C14.4282 12.553 14.141 13.2464 13.6298 13.7576C13.1185 14.2689 12.4251 14.5561 11.7021 14.5561V14.5561ZM11.7021 7.63046C10.5883 7.63046 9.52018 8.0729 8.73263 8.86046C7.94507 9.64802 7.50262 10.7162 7.50262 11.8299C7.50262 12.9437 7.94507 14.0119 8.73263 14.7994C9.52018 15.587 10.5883 16.0294 11.7021 16.0294C12.8159 16.0294 13.884 15.587 14.6716 14.7994C15.4592 14.0119 15.9016 12.9437 15.9016 11.8299C15.9016 10.7162 15.4592 9.64802 14.6716 8.86046C13.884 8.0729 12.8159 7.63046 11.7021 7.63046V7.63046ZM17.1233 7.5542C17.1233 7.81748 17.0187 8.06997 16.8326 8.25614C16.6464 8.4423 16.3939 8.54688 16.1306 8.54688C15.8674 8.54688 15.6149 8.4423 15.4287 8.25614C15.2425 8.06997 15.138 7.81748 15.138 7.5542C15.138 7.29093 15.2425 7.03844 15.4287 6.85227C15.6149 6.66611 15.8674 6.56152 16.1306 6.56152C16.3939 6.56152 16.6464 6.66611 16.8326 6.85227C17.0187 7.03844 17.1233 7.29093 17.1233 7.5542" fill="#C39A2D"/>
</svg>
