<svg width="91" height="42" viewBox="0 0 91 42" fill="none" xmlns="http://www.w3.org/2000/svg">
<g clip-path="url(#clip0_90_470)">
<path d="M27.7213 29.4782C28.0165 29.7734 28.0165 30.2515 27.7213 30.5467L24.9397 33.3283L24.1326 34.1354C23.8374 34.4306 23.3594 34.4306 23.0641 34.1354L18.6889 29.7601L16.746 27.8162L14.5875 25.6577L10.4656 21.5348C10.1704 21.2396 10.1704 20.7615 10.4656 20.4663L14.0532 16.8786C14.3484 16.5834 14.8265 16.5834 15.1217 16.8786L16.746 18.5029L19.2436 21.0005L22.8772 24.6341L27.7213 29.4782Z" fill="#C39A2D"/>
<path d="M21.207 36.6044C21.3326 36.73 21.3326 36.9354 21.207 37.061L17.6735 40.5955L16.8011 41.4679H16.7582L16.746 41.4556L13.5057 38.2164L7.7667 32.4774L3.33836 28.0491C3.21271 27.9234 3.21271 27.7181 3.33836 27.5924L7.53787 23.3929C7.66352 23.2673 7.86885 23.2673 7.9945 23.3929L17.8216 33.2201L21.206 36.6044H21.207Z" fill="#C39A2D"/>
<path d="M26.5986 14.7151L32.3069 20.4234C32.4489 20.5654 32.5286 20.7574 32.5286 20.9576V25.4268C32.5286 25.627 32.4489 25.8191 32.3069 25.9611L30.9544 27.3136C30.6592 27.6088 30.1811 27.6088 29.8859 27.3136L24.2123 21.64L17.2863 14.714C16.9911 14.4188 16.9911 13.9407 17.2863 13.6455L21.4092 9.52364C21.8853 9.0476 21.5482 8.23345 20.875 8.23345H20.5818L20.6104 8.20688H18.4162L18.3896 8.23345L16.748 9.87504L14.5977 12.0254L12.4341 14.189L7.77691 18.8461L5.61331 21.0097L1.48939 25.1316C1.19417 25.4268 0.716093 25.4268 0.420871 25.1316L0.221672 24.9324C0.0796794 24.7904 0 24.5984 0 24.3981V2.40357C0 1.98576 0.338127 1.64764 0.755933 1.64764H16.746H31.7716C32.1895 1.64764 32.5276 1.98576 32.5276 2.40357V7.40294C32.5276 7.60316 32.4479 7.79521 32.3059 7.9372L26.5976 13.6455C26.3024 13.9407 26.3024 14.4188 26.5976 14.714L26.5986 14.7151Z" fill="#C39A2D"/>
<path d="M37.9019 8.84263H36.5871V2.93206H35.0518V1.6531H39.4413V2.93206H37.9008V8.84161L37.9019 8.84263Z" fill="white"/>
<path d="M44.506 8.84225H43.1964V5.88696H41.4353V8.84225H40.1257V1.65782H41.4353V4.61311H43.1964V1.65782H44.506V8.84225Z" fill="white"/>
<path d="M49.44 8.84225H45.4162V1.64761H49.44V2.92657H46.7309V4.60699H49.2848V5.88084H46.7309V7.56125H49.44V8.84021V8.84225Z" fill="white"/>
<path d="M39.0552 17.4231H35.252V10.2438H39.0552L39.6323 10.821V13.194L38.9949 13.8314L39.6323 14.4689V16.8419L39.0552 17.4242V17.4231ZM38.3227 13.194V11.5187H36.5667V13.194H38.3227ZM38.3227 16.1493V14.4689H36.5667V16.1493H38.3227Z" fill="white"/>
<path d="M44.5766 17.4231H40.5527V10.2295H44.5766V11.5085H41.8675V13.1889H44.4213V14.4627H41.8675V16.1432H44.5766V17.4221V17.4231Z" fill="white"/>
<path d="M49.4748 17.4231H45.451V10.2295H49.4748V11.5085H46.7657V13.1889H49.3195V14.4627H46.7657V16.1432H49.4748V17.4221V17.4231Z" fill="white"/>
<path d="M54.1533 17.4231H50.9274L50.3502 16.8408V15.2554H51.6649V16.1482H53.4209V10.2336H54.7356V16.8408L54.1533 17.4231Z" fill="white"/>
<path d="M59.1824 17.4487L58.8964 16.0083H57.0852L56.7992 17.4231H55.369L56.8288 10.2234H59.1517L60.587 17.4231L59.1824 17.4487ZM58.641 14.7345L57.9892 11.4982L57.3416 14.7345H58.641Z" fill="white"/>
<path d="M62.6913 17.4231V14.3228L60.9904 10.3092L62.2449 10.1733L63.3441 12.7721L64.4177 10.2387H65.7324L64.0019 14.3228V17.4231H62.6923H62.6913Z" fill="white"/>
<path d="M69.0851 17.4231H67.7703V11.5136H66.235V10.2346H70.6245V11.5136H69.084V17.4231H69.0851Z" fill="white"/>
<path d="M75.3337 17.4231H71.3099V10.2295H75.3337V11.5085H72.6246V13.1889H75.1785V14.4627H72.6246V16.1432H75.3337V17.4221V17.4231Z" fill="white"/>
<path d="M80.0165 17.4231H76.7905L76.2082 16.8408V10.8108L76.7905 10.2285H80.0165L80.5988 10.8108V12.4718H79.284V11.5085H77.5229V16.1442H79.284V15.1809H80.5988V16.8419L80.0165 17.4241V17.4231Z" fill="white"/>
<path d="M85.8893 17.4231H84.5797V14.4678H82.8186V17.4231H81.509V10.2397H82.8186V13.195H84.5797V10.2397H85.8893V17.4241V17.4231Z" fill="white"/>
<path d="M39.0552 26.005H35.252V18.8257H39.0552L39.6323 19.4029V21.7759L38.9949 22.4133L39.6323 23.0507V25.4238L39.0552 26.006V26.005ZM38.3227 21.7759V20.1006H36.5667V21.7759H38.3227ZM38.3227 24.7312V23.0507H36.5667V24.7312H38.3227Z" fill="white"/>
<path d="M43.9095 26.005L43.0014 23.6667H41.8675L41.8654 26.007L40.6396 26.0029L40.5527 18.8093H44.361L44.9433 19.3916V23.0844L44.3866 23.6463L45.2303 26.0561L43.9095 26.004V26.005ZM43.6286 22.3928V20.0903H41.8675V22.3928H43.6286Z" fill="white"/>
<path d="M49.58 25.9999L49.3849 24.5902H47.5737L47.2877 26.005H45.8575L47.3173 18.8052H49.6403L51.0755 26.005L49.58 25.9999ZM49.1285 23.3163L48.4767 20.0801L47.8291 23.3163H49.1285Z" fill="white"/>
<path d="M56.0698 26.005H54.7551L52.9939 21.8862V26.005H51.6792V18.8104H52.9939L54.7551 22.9292V18.8104H56.0698V26.005Z" fill="white"/>
<path d="M60.778 26.005H56.9697V18.8104H60.778L61.3603 19.3926V25.4227L60.778 26.005ZM60.0456 24.726V20.0852H58.2845V24.726H60.0456Z" fill="white"/>
</g>
<defs>
<clipPath id="clip0_90_470">
<rect width="91" height="40.9358" fill="white" transform="translate(0 0.532101)"/>
</clipPath>
</defs>
</svg>
