<svg width="87" height="40" viewBox="0 0 87 40" fill="none" xmlns="http://www.w3.org/2000/svg">
<path d="M28.2213 27.9782C28.5165 28.2734 28.5165 28.7515 28.2213 29.0467L25.4396 31.8284L24.6326 32.6354C24.3374 32.9306 23.8593 32.9306 23.5641 32.6354L19.1889 28.2602L17.2459 26.3162L15.0874 24.1577L10.9656 20.0348C10.6703 19.7396 10.6703 19.2615 10.9656 18.9663L14.5532 15.3787C14.8484 15.0834 15.3265 15.0834 15.6217 15.3787L17.2459 17.0029L19.7436 19.5005L23.3772 23.1341L28.2213 27.9782Z" fill="#C39A2D"/>
<path d="M21.707 35.1044C21.8326 35.23 21.8326 35.4354 21.707 35.561L18.1735 39.0955L17.3011 39.9679H17.2582L17.246 39.9557L14.0057 36.7164L8.26671 30.9774L3.83838 26.5491C3.71273 26.4234 3.71273 26.2181 3.83838 26.0925L8.03789 21.8929C8.16354 21.7673 8.36887 21.7673 8.49451 21.8929L18.3216 31.7201L21.706 35.1044H21.707Z" fill="#C39A2D"/>
<path d="M27.0986 13.2151L32.8069 18.9234C32.9489 19.0654 33.0286 19.2574 33.0286 19.4576V23.9268C33.0286 24.1271 32.9489 24.3191 32.8069 24.4611L31.4544 25.8136C31.1592 26.1088 30.6811 26.1088 30.3859 25.8136L24.7123 20.14L17.7863 13.214C17.4911 12.9188 17.4911 12.4407 17.7863 12.1455L21.9092 8.02365C22.3853 7.54761 22.0482 6.73345 21.375 6.73345H21.0818L21.1104 6.70689H18.9162L18.8896 6.73345L17.248 8.37505L15.0977 10.5254L12.9341 12.689L8.27691 17.3461L6.11331 19.5097L1.98939 23.6316C1.69417 23.9268 1.21609 23.9268 0.920871 23.6316L0.721672 23.4324C0.579679 23.2904 0.5 23.0984 0.5 22.8982V0.903577C0.5 0.485771 0.838127 0.147644 1.25593 0.147644H17.246H32.2716C32.6895 0.147644 33.0276 0.485771 33.0276 0.903577V5.90295C33.0276 6.10317 32.9479 6.29522 32.8059 6.43721L27.0976 12.1455C26.8024 12.4407 26.8024 12.9188 27.0976 13.214L27.0986 13.2151Z" fill="#C39A2D"/>
<path d="M38.4018 7.34264H37.0871V1.43206H35.5518V0.153107H39.9413V1.43206H38.4008V7.34162L38.4018 7.34264Z" fill="#1D3F20"/>
<path d="M45.0061 7.34226H43.6965V4.38697H41.9353V7.34226H40.6257V0.157837H41.9353V3.11313H43.6965V0.157837H45.0061V7.34226Z" fill="#1D3F20"/>
<path d="M49.9401 7.34225H45.9163V0.147614H49.9401V1.42657H47.231V3.10699H49.7848V4.38084H47.231V6.06125H49.9401V7.34021V7.34225Z" fill="#1D3F20"/>
<path d="M39.5551 15.9232H35.752V8.74384H39.5551L40.1323 9.321V11.694L39.4948 12.3315L40.1323 12.9689V15.3419L39.5551 15.9242V15.9232ZM38.8227 11.694V10.0187H37.0667V11.694H38.8227ZM38.8227 14.6493V12.9689H37.0667V14.6493H38.8227Z" fill="#1D3F20"/>
<path d="M45.0765 15.9231H41.0527V8.72952H45.0765V10.0085H42.3674V11.6889H44.9213V12.9627H42.3674V14.6432H45.0765V15.9221V15.9231Z" fill="#1D3F20"/>
<path d="M49.9747 15.9231H45.9509V8.72952H49.9747V10.0085H47.2656V11.6889H49.8195V12.9627H47.2656V14.6432H49.9747V15.9221V15.9231Z" fill="#1D3F20"/>
<path d="M54.6533 15.9231H51.4273L50.8501 15.3409V13.7554H52.1648V14.6483H53.9208V8.7336H55.2355V15.3409L54.6533 15.9231Z" fill="#1D3F20"/>
<path d="M59.6823 15.9487L59.3962 14.5083H57.5851L57.299 15.9231H55.8689L57.3287 8.72339H59.6516L61.0869 15.9231L59.6823 15.9487ZM59.1409 13.2345L58.4891 9.99826L57.8415 13.2345H59.1409Z" fill="#1D3F20"/>
<path d="M63.1913 15.9231V12.8228L61.4905 8.80917L62.7449 8.67331L63.8441 11.2721L64.9177 8.73869H66.2324L64.502 12.8228V15.9231H63.1924H63.1913Z" fill="#1D3F20"/>
<path d="M69.5849 15.9231H68.2702V10.0136H66.7349V8.73462H71.1244V10.0136H69.5839V15.9231H69.5849Z" fill="#1D3F20"/>
<path d="M75.8336 15.9231H71.8098V8.72952H75.8336V10.0085H73.1245V11.6889H75.6784V12.9627H73.1245V14.6432H75.8336V15.9221V15.9231Z" fill="#1D3F20"/>
<path d="M80.5165 15.9231H77.2905L76.7083 15.3409V9.31076L77.2905 8.72849H80.5165L81.0988 9.31076V10.9718H79.7841V10.0085H78.023V14.6442H79.7841V13.6809H81.0988V15.3419L80.5165 15.9241V15.9231Z" fill="#1D3F20"/>
<path d="M86.3894 15.9231H85.0798V12.9678H83.3186V15.9231H82.009V8.73973H83.3186V11.695H85.0798V8.73973H86.3894V15.9242V15.9231Z" fill="#1D3F20"/>
<path d="M39.5551 24.505H35.752V17.3257H39.5551L40.1323 17.9029V20.2759L39.4948 20.9133L40.1323 21.5507V23.9238L39.5551 24.506V24.505ZM38.8227 20.2759V18.6006H37.0667V20.2759H38.8227ZM38.8227 23.2312V21.5507H37.0667V23.2312H38.8227Z" fill="#1D3F20"/>
<path d="M44.4095 24.505L43.5013 22.1667H42.3674L42.3654 24.507L41.1396 24.5029L41.0527 17.3093H44.861L45.4433 17.8916V21.5844L44.8865 22.1463L45.7303 24.5561L44.4095 24.504V24.505ZM44.1286 20.8929V18.5903H42.3674V20.8929H44.1286Z" fill="#1D3F20"/>
<path d="M50.0799 24.4999L49.8848 23.0902H48.0736L47.7876 24.505H46.3574L47.8172 17.3053H50.1401L51.5754 24.505L50.0799 24.4999ZM49.6284 21.8163L48.9766 18.5801L48.329 21.8163H49.6284Z" fill="#1D3F20"/>
<path d="M56.5697 24.505H55.255L53.4939 20.3862V24.505H52.1792V17.3104H53.4939L55.255 21.4292V17.3104H56.5697V24.505Z" fill="#1D3F20"/>
<path d="M61.278 24.505H57.4697V17.3104H61.278L61.8603 17.8926V23.9227L61.278 24.505ZM60.5456 23.226V18.5852H58.7844V23.226H60.5456Z" fill="#1D3F20"/>
</svg>
