<svg width="25" height="24" viewBox="0 0 25 24" fill="none" xmlns="http://www.w3.org/2000/svg">
<path d="M21.9158 12C21.9158 14.541 20.9064 16.9779 19.1097 18.7747C17.3129 20.5714 14.876 21.5808 12.3351 21.5808C9.79409 21.5808 7.35719 20.5714 5.56045 18.7747C3.76371 16.9779 2.75432 14.541 2.75432 12C2.75432 9.45907 3.76371 7.02218 5.56045 5.22544C7.35719 3.4287 9.79409 2.4193 12.3351 2.4193C13.2452 2.4193 14.1314 2.55104 14.9698 2.79056L16.85 0.910337C15.4182 0.319934 13.8838 0.0187408 12.3351 0.0241186C10.7624 0.0241186 9.20505 0.333885 7.75207 0.935732C6.29908 1.53758 4.97887 2.41972 3.8668 3.53179C1.62088 5.77771 0.359131 8.82383 0.359131 12C0.359131 15.1763 1.62088 18.2224 3.8668 20.4683C4.97887 21.5804 6.29908 22.4625 7.75207 23.0644C9.20505 23.6662 10.7624 23.976 12.3351 23.976C15.5113 23.976 18.5574 22.7142 20.8033 20.4683C23.0492 18.2224 24.311 15.1763 24.311 12M7.4369 9.70067L5.7483 11.4012L11.1375 16.7904L23.1134 4.81449L21.4248 3.11391L11.1375 13.4012L7.4369 9.70067Z" fill="#C39A2D"/>
</svg>
