<svg width="27" height="20" viewBox="0 0 27 20" fill="none" xmlns="http://www.w3.org/2000/svg">
<path d="M25.3109 7.60485V14.7904M24.6163 8.70903C24.8307 8.61445 25.0126 8.45905 25.1396 8.26209C25.2665 8.06513 25.3329 7.83525 25.3305 7.60094C25.328 7.36663 25.2569 7.13817 25.1259 6.94388C24.995 6.74958 24.8099 6.59798 24.5936 6.50785L14.329 1.83245C14.0169 1.69011 13.678 1.61646 13.335 1.61646C12.992 1.61646 12.653 1.69011 12.341 1.83245L2.07762 6.50306C1.86441 6.59644 1.68303 6.74993 1.55567 6.94475C1.4283 7.13958 1.36047 7.36729 1.36047 7.60006C1.36047 7.83282 1.4283 8.06053 1.55567 8.25536C1.68303 8.45018 1.86441 8.60367 2.07762 8.69705L12.341 13.3772C12.653 13.5196 12.992 13.5932 13.335 13.5932C13.678 13.5932 14.0169 13.5196 14.329 13.3772L24.6163 8.70903Z" stroke="#C39A2D" stroke-width="2.39519" stroke-linecap="round" stroke-linejoin="round"/>
<path d="M6.14941 10.5988V14.7903C6.14941 15.7432 6.90646 16.657 8.25401 17.3308C9.60157 18.0046 11.4292 18.3831 13.335 18.3831C15.2407 18.3831 17.0684 18.0046 18.4159 17.3308C19.7635 16.657 20.5205 15.7432 20.5205 14.7903V10.5988" stroke="#C39A2D" stroke-width="2.39519" stroke-linecap="round" stroke-linejoin="round"/>
</svg>
