<svg width="25" height="16" viewBox="0 0 25 16" fill="none" xmlns="http://www.w3.org/2000/svg">
<path d="M24.215 1.55708C24.0935 1.26445 23.861 1.03191 23.5683 0.910383C23.4244 0.849017 23.2698 0.816467 23.1133 0.814575H17.1253C16.8077 0.814575 16.5031 0.94075 16.2785 1.16534C16.0539 1.38993 15.9277 1.69455 15.9277 2.01217C15.9277 2.32979 16.0539 2.6344 16.2785 2.85899C16.5031 3.08359 16.8077 3.20976 17.1253 3.20976H20.2271L13.5325 9.9043L9.59243 5.95225C9.4811 5.84 9.34865 5.75091 9.20271 5.6901C9.05677 5.6293 8.90024 5.598 8.74214 5.598C8.58405 5.598 8.42751 5.6293 8.28158 5.6901C8.13564 5.75091 8.00318 5.84 7.89185 5.95225L0.706297 13.1378C0.594048 13.2491 0.504954 13.3816 0.444154 13.5275C0.383354 13.6735 0.352051 13.83 0.352051 13.9881C0.352051 14.1462 0.383354 14.3027 0.444154 14.4487C0.504954 14.5946 0.594048 14.7271 0.706297 14.8384C0.817628 14.9506 0.950084 15.0397 1.09602 15.1005C1.24196 15.1613 1.39849 15.1926 1.55659 15.1926C1.71468 15.1926 1.87122 15.1613 2.01715 15.1005C2.16309 15.0397 2.29555 14.9506 2.40688 14.8384L8.74214 8.49114L12.6822 12.4432C12.7936 12.5554 12.926 12.6445 13.0719 12.7053C13.2179 12.7661 13.3744 12.7974 13.5325 12.7974C13.6906 12.7974 13.8471 12.7661 13.9931 12.7053C14.139 12.6445 14.2715 12.5554 14.3828 12.4432L21.9157 4.89837V8.00013C21.9157 8.31775 22.0418 8.62236 22.2664 8.84696C22.491 9.07155 22.7956 9.19772 23.1133 9.19772C23.4309 9.19772 23.7355 9.07155 23.9601 8.84696C24.1847 8.62236 24.3108 8.31775 24.3108 8.00013V2.01217C24.309 1.85567 24.2764 1.70106 24.215 1.55708Z" fill="#C39A2D"/>
</svg>
