<svg width="30" height="30" viewBox="0 0 30 30" fill="none" xmlns="http://www.w3.org/2000/svg">
<path d="M15.335 15.0001C18.642 15.0001 21.3229 12.3192 21.3229 9.01213C21.3229 5.70507 18.642 3.02417 15.335 3.02417C12.0279 3.02417 9.34702 5.70507 9.34702 9.01213C9.34702 12.3192 12.0279 15.0001 15.335 15.0001Z" stroke="#C39A2D" stroke-width="2.39519"/>
<path d="M21.323 17.3955H21.7446C22.6201 17.3958 23.4654 17.7157 24.1217 18.2952C24.778 18.8748 25.2 19.674 25.3086 20.5428L25.7769 24.2841C25.819 24.6211 25.7889 24.9632 25.6887 25.2878C25.5885 25.6123 25.4204 25.9118 25.1956 26.1664C24.9708 26.421 24.6944 26.6249 24.3847 26.7645C24.0751 26.9042 23.7393 26.9763 23.3996 26.9762H7.27046C6.9308 26.9763 6.59501 26.9042 6.28538 26.7645C5.97574 26.6249 5.69934 26.421 5.47452 26.1664C5.2497 25.9118 5.08161 25.6123 4.98139 25.2878C4.88117 24.9632 4.85112 24.6211 4.89324 24.2841L5.3603 20.5428C5.46892 19.6736 5.89133 18.874 6.54811 18.2944C7.20489 17.7149 8.05079 17.3952 8.92673 17.3955H9.34709" stroke="#C39A2D" stroke-width="2.39519" stroke-linecap="round" stroke-linejoin="round"/>
</svg>
