<svg width="30" height="30" viewBox="0 0 30 30" fill="none" xmlns="http://www.w3.org/2000/svg">
<path d="M15.335 25.7785C16.7504 25.7785 18.152 25.4997 19.4597 24.958C20.7674 24.4164 21.9555 23.6224 22.9564 22.6216C23.9573 21.6207 24.7512 20.4325 25.2929 19.1248C25.8345 17.8171 26.1133 16.4156 26.1133 15.0001C26.1133 13.5847 25.8345 12.1831 25.2929 10.8754C24.7512 9.56776 23.9573 8.37956 22.9564 7.3787C21.9555 6.37784 20.7674 5.58392 19.4597 5.04225C18.152 4.50059 16.7504 4.2218 15.335 4.2218M15.335 25.7785C13.9195 25.7785 12.518 25.4997 11.2103 24.958C9.9026 24.4164 8.7144 23.6224 7.71354 22.6216C6.71268 21.6207 5.91875 20.4325 5.37709 19.1248C4.83543 17.8171 4.55664 16.4156 4.55664 15.0001C4.55664 13.5847 4.83543 12.1831 5.37709 10.8754C5.91875 9.56776 6.71268 8.37956 7.71354 7.3787C8.7144 6.37784 9.9026 5.58392 11.2103 5.04225C12.518 4.50059 13.9195 4.2218 15.335 4.2218M15.335 25.7785C18.6415 25.7785 20.0547 19.5953 20.0547 15.0001C20.0547 10.405 18.6415 4.2218 15.335 4.2218M15.335 25.7785C12.0284 25.7785 10.6153 19.5953 10.6153 15.0001C10.6153 10.405 12.0284 4.2218 15.335 4.2218M5.15544 11.4074H25.5145M5.15544 18.5929H25.5145" stroke="#C39A2D" stroke-width="1.79639" stroke-linecap="round" stroke-linejoin="round"/>
</svg>
