<svg width="14" height="16" viewBox="0 0 14 16" fill="none" xmlns="http://www.w3.org/2000/svg">
<path d="M11.1385 11.1825C11.2572 11.3011 11.2572 11.4932 11.1385 11.6118L10.0209 12.7295L9.69661 13.0537C9.57799 13.1724 9.3859 13.1724 9.26728 13.0537L7.50929 11.2958L6.7286 10.5147L5.86131 9.64736L4.20512 7.99076C4.08649 7.87213 4.08649 7.68004 4.20512 7.56142L5.64664 6.1199C5.76526 6.00127 5.95735 6.00127 6.07598 6.1199L6.7286 6.77252L7.73217 7.77609L9.19216 9.23608L11.1385 11.1825Z" fill="#C39A2D"/>
<path d="M8.5211 14.0458C8.57158 14.0963 8.57158 14.1788 8.5211 14.2293L7.10133 15.6495L6.7508 16H6.73356L6.72863 15.9951L5.42666 14.6935L3.12072 12.3876L1.34139 10.6082C1.29091 10.5577 1.29091 10.4752 1.34139 10.4248L3.02878 8.73737C3.07926 8.68689 3.16177 8.68689 3.21225 8.73737L7.16084 12.686L8.52068 14.0458H8.5211Z" fill="#C39A2D"/>
<path d="M10.6875 5.25056L12.9811 7.54419C13.0381 7.60124 13.0702 7.67841 13.0702 7.75886V9.5546C13.0702 9.63505 13.0381 9.71222 12.9811 9.76927L12.4376 10.3127C12.319 10.4313 12.1269 10.4313 12.0083 10.3127L9.72864 8.03304L6.94574 5.25015C6.82712 5.13153 6.82712 4.93943 6.94574 4.82081L8.60234 3.16462C8.79362 2.97335 8.65817 2.64621 8.38768 2.64621H8.26987L8.28137 2.63554H7.39971L7.38904 2.64621L6.72943 3.30582L5.86542 4.16983L4.99607 5.03917L3.1248 6.91044L2.25546 7.77979L0.598445 9.43598C0.479823 9.5546 0.28773 9.5546 0.169108 9.43598L0.089069 9.35594C0.0320156 9.29889 0 9.22172 0 9.14127V0.303738C0 0.135861 0.135861 0 0.303738 0H6.72861H12.766C12.9339 0 13.0698 0.135861 13.0698 0.303738V2.31251C13.0698 2.39296 13.0377 2.47013 12.9807 2.52718L10.6871 4.82081C10.5684 4.93943 10.5684 5.13153 10.6871 5.25015L10.6875 5.25056Z" fill="#C39A2D"/>
</svg>
